<svg width="36" height="36" viewBox="0 0 36 36" fill="#C4C4C4" xmlns="http://www.w3.org/2000/svg">
<path d="M18 0.445496C8.055 0.445496 0 8.505 0 18.4455C0 26.4 5.157 33.1455 12.3075 35.523C13.2075 35.6925 13.5375 35.136 13.5375 34.6575C13.5375 34.23 13.5225 33.0975 13.515 31.5975C8.508 32.6835 7.452 29.1825 7.452 29.1825C6.633 27.105 5.4495 26.55 5.4495 26.55C3.819 25.434 5.5755 25.4565 5.5755 25.4565C7.383 25.5825 8.3325 27.3105 8.3325 27.3105C9.9375 30.063 12.546 29.268 13.575 28.8075C13.737 27.6435 14.2005 26.85 14.715 26.4C10.7175 25.95 6.516 24.402 6.516 17.505C6.516 15.54 7.2135 13.935 8.3685 12.675C8.166 12.2205 7.5585 10.3905 8.526 7.911C8.526 7.911 10.0335 7.428 13.476 9.756C14.916 9.3555 16.446 9.1575 17.976 9.1485C19.506 9.1575 21.036 9.3555 22.476 9.756C25.896 7.428 27.4035 7.911 27.4035 7.911C28.371 10.3905 27.7635 12.2205 27.5835 12.675C28.731 13.935 29.4285 15.54 29.4285 17.505C29.4285 24.42 25.221 25.9425 21.216 26.385C21.846 26.925 22.431 28.029 22.431 29.715C22.431 32.124 22.4085 34.059 22.4085 34.644C22.4085 35.1165 22.7235 35.679 23.646 35.499C30.8475 33.138 36 26.388 36 18.4455C36 8.505 27.9405 0.445496 18 0.445496"/>
</svg>
