<svg width="36" height="36" viewBox="0 0 36 36" fill="black" xmlns="http://www.w3.org/2000/svg">
<path d="M30.5155 19.1777L18.8472 5.73042C18.7417 5.60874 18.6113 5.51115 18.4648 5.44427C18.3183 5.37739 18.1592 5.34277 17.9982 5.34277C17.8371 5.34277 17.678 5.37739 17.5315 5.44427C17.385 5.51115 17.2546 5.60874 17.1491 5.73042L5.48429 19.1777C5.44905 19.2182 5.42619 19.268 5.41845 19.3212C5.41071 19.3743 5.41841 19.4286 5.44064 19.4775C5.46287 19.5264 5.49869 19.5679 5.54382 19.597C5.58896 19.6261 5.64152 19.6417 5.69523 19.6417H8.54289C8.70461 19.6417 8.85929 19.5714 8.96828 19.4484L16.664 10.5785V30.3749C16.664 30.5296 16.7905 30.6562 16.9452 30.6562H19.0546C19.2093 30.6562 19.3359 30.5296 19.3359 30.3749V10.5785L27.0316 19.4484C27.137 19.5714 27.2917 19.6417 27.457 19.6417H30.3046C30.5437 19.6417 30.6737 19.3605 30.5155 19.1777Z"/>
</svg>
